<mxfile host="65bd71144e" modified="2020-10-19T22:19:12.386Z" agent="5.0 (Macintosh; Intel Mac OS X 10_15_7) AppleWebKit/537.36 (KHTML, like Gecko) Code/1.49.3 Chrome/83.0.4103.122 Electron/9.2.1 Safari/537.36" version="13.6.5" etag="qlwStbsSqTPLLVrdRMGg">
    <diagram id="o-IqoPd8YbjG9_madkOj" name="Page-1">
        <mxGraphModel dx="1070" dy="1007" grid="1" gridSize="10" guides="1" tooltips="1" connect="1" arrows="1" fold="1" page="1" pageScale="1" pageWidth="827" pageHeight="1169" math="0" shadow="0">
            <root>
                <mxCell id="0"/>
                <mxCell id="7" style="locked=1;" parent="0"/>
                <mxCell id="8" value="" style="rounded=0;whiteSpace=wrap;html=1;dashed=1;fillColor=none;" vertex="1" parent="7">
                    <mxGeometry x="80" y="160" width="650" height="280" as="geometry"/>
                </mxCell>
                <mxCell id="9" value="" style="rounded=0;whiteSpace=wrap;html=1;dashed=1;fillColor=none;" vertex="1" parent="7">
                    <mxGeometry x="80" y="520" width="650" height="280" as="geometry"/>
                </mxCell>
                <mxCell id="28" value="" style="rounded=0;whiteSpace=wrap;html=1;dashed=1;fillColor=none;fontSize=17;dashPattern=1 1;" vertex="1" parent="7">
                    <mxGeometry x="40" y="110" width="970" height="800" as="geometry"/>
                </mxCell>
                <mxCell id="10" value="Object Layer" style="" parent="0"/>
                <mxCell id="11" value="" style="verticalLabelPosition=bottom;html=1;verticalAlign=top;align=center;strokeColor=none;fillColor=#00BEF2;shape=mxgraph.azure.virtual_network;pointerEvents=1;dashed=1;" vertex="1" parent="10">
                    <mxGeometry x="80" y="170" width="50" height="27.500000000000004" as="geometry"/>
                </mxCell>
                <mxCell id="12" value="" style="verticalLabelPosition=bottom;html=1;verticalAlign=top;align=center;strokeColor=none;fillColor=#00BEF2;shape=mxgraph.azure.virtual_network;pointerEvents=1;dashed=1;" vertex="1" parent="10">
                    <mxGeometry x="80" y="520" width="50" height="27.500000000000004" as="geometry"/>
                </mxCell>
                <mxCell id="13" value="public subnet&lt;br style=&quot;font-size: 17px;&quot;&gt;" style="text;html=1;strokeColor=none;fillColor=none;align=center;verticalAlign=middle;whiteSpace=wrap;rounded=0;dashed=1;fontSize=17;" vertex="1" parent="10">
                    <mxGeometry x="130" y="173.75" width="120" height="20" as="geometry"/>
                </mxCell>
                <mxCell id="14" value="private subnet" style="text;html=1;strokeColor=none;fillColor=none;align=center;verticalAlign=middle;whiteSpace=wrap;rounded=0;dashed=1;fontSize=17;" vertex="1" parent="10">
                    <mxGeometry x="140" y="527.5" width="120" height="20" as="geometry"/>
                </mxCell>
                <mxCell id="15" value="" style="verticalLabelPosition=bottom;html=1;verticalAlign=top;align=center;strokeColor=none;fillColor=#00BEF2;shape=mxgraph.azure.database;dashed=1;fontSize=17;" vertex="1" parent="10">
                    <mxGeometry x="258.75" y="630" width="52.5" height="70" as="geometry"/>
                </mxCell>
                <mxCell id="16" value="" style="verticalLabelPosition=bottom;html=1;verticalAlign=top;align=center;strokeColor=none;fillColor=#00BEF2;shape=mxgraph.azure.database;dashed=1;fontSize=17;" vertex="1" parent="10">
                    <mxGeometry x="590" y="630" width="52.5" height="70" as="geometry"/>
                </mxCell>
                <mxCell id="17" value="" style="verticalLabelPosition=bottom;html=1;verticalAlign=top;align=center;strokeColor=none;fillColor=#00BEF2;shape=mxgraph.azure.database;dashed=1;fontSize=17;" vertex="1" parent="10">
                    <mxGeometry x="432.75" y="630" width="52.5" height="70" as="geometry"/>
                </mxCell>
                <mxCell id="18" value="" style="verticalLabelPosition=bottom;html=1;verticalAlign=top;align=center;strokeColor=none;fillColor=#00BEF2;shape=mxgraph.azure.storage_blob;dashed=1;fontSize=17;" vertex="1" parent="10">
                    <mxGeometry x="800" y="270" width="88.89" height="80" as="geometry"/>
                </mxCell>
                <mxCell id="32" style="edgeStyle=none;rounded=0;orthogonalLoop=1;jettySize=auto;html=1;exitX=0.5;exitY=1;exitDx=0;exitDy=0;exitPerimeter=0;entryX=0.5;entryY=0;entryDx=0;entryDy=0;entryPerimeter=0;fontSize=17;" edge="1" parent="10" source="40" target="20">
                    <mxGeometry relative="1" as="geometry">
                        <mxPoint x="378.375" y="211" as="sourcePoint"/>
                    </mxGeometry>
                </mxCell>
                <mxCell id="33" style="edgeStyle=none;rounded=0;orthogonalLoop=1;jettySize=auto;html=1;exitX=0.5;exitY=1;exitDx=0;exitDy=0;exitPerimeter=0;entryX=0.5;entryY=0;entryDx=0;entryDy=0;entryPerimeter=0;fontSize=17;" edge="1" parent="10" source="40" target="21">
                    <mxGeometry relative="1" as="geometry">
                        <mxPoint x="378.375" y="211" as="sourcePoint"/>
                    </mxGeometry>
                </mxCell>
                <mxCell id="20" value="" style="verticalLabelPosition=bottom;html=1;verticalAlign=top;align=center;strokeColor=none;fillColor=#00BEF2;shape=mxgraph.azure.virtual_machine;dashed=1;fontSize=17;" vertex="1" parent="10">
                    <mxGeometry x="240" y="270" width="90" height="80" as="geometry"/>
                </mxCell>
                <mxCell id="23" style="rounded=0;orthogonalLoop=1;jettySize=auto;html=1;exitX=0.5;exitY=1;exitDx=0;exitDy=0;exitPerimeter=0;entryX=0.5;entryY=0;entryDx=0;entryDy=0;entryPerimeter=0;fontSize=17;" edge="1" parent="10" source="21" target="15">
                    <mxGeometry relative="1" as="geometry"/>
                </mxCell>
                <mxCell id="24" style="edgeStyle=none;rounded=0;orthogonalLoop=1;jettySize=auto;html=1;exitX=0.5;exitY=1;exitDx=0;exitDy=0;exitPerimeter=0;entryX=0.5;entryY=0;entryDx=0;entryDy=0;entryPerimeter=0;fontSize=17;" edge="1" parent="10" source="21" target="17">
                    <mxGeometry relative="1" as="geometry"/>
                </mxCell>
                <mxCell id="25" style="edgeStyle=none;rounded=0;orthogonalLoop=1;jettySize=auto;html=1;exitX=0.5;exitY=1;exitDx=0;exitDy=0;exitPerimeter=0;entryX=0.5;entryY=0;entryDx=0;entryDy=0;entryPerimeter=0;fontSize=17;" edge="1" parent="10" source="21" target="16">
                    <mxGeometry relative="1" as="geometry"/>
                </mxCell>
                <mxCell id="27" style="edgeStyle=none;rounded=0;orthogonalLoop=1;jettySize=auto;html=1;exitX=1;exitY=0.5;exitDx=0;exitDy=0;exitPerimeter=0;entryX=0;entryY=0.5;entryDx=0;entryDy=0;entryPerimeter=0;fontSize=17;" edge="1" parent="10" source="21" target="18">
                    <mxGeometry relative="1" as="geometry"/>
                </mxCell>
                <mxCell id="21" value="" style="verticalLabelPosition=bottom;html=1;verticalAlign=top;align=center;strokeColor=none;fillColor=#00BEF2;shape=mxgraph.azure.virtual_machine;dashed=1;fontSize=17;" vertex="1" parent="10">
                    <mxGeometry x="414" y="270" width="90" height="80" as="geometry"/>
                </mxCell>
                <mxCell id="29" value="Azure" style="text;html=1;strokeColor=none;fillColor=none;align=center;verticalAlign=middle;whiteSpace=wrap;rounded=0;dashed=1;dashPattern=1 1;fontSize=17;" vertex="1" parent="10">
                    <mxGeometry x="20" y="100" width="100" height="50" as="geometry"/>
                </mxCell>
                <mxCell id="35" value="NSG" style="text;html=1;strokeColor=none;fillColor=none;align=center;verticalAlign=middle;whiteSpace=wrap;rounded=0;dashed=1;fontSize=17;" vertex="1" parent="10">
                    <mxGeometry x="45" y="211" width="120" height="20" as="geometry"/>
                </mxCell>
                <mxCell id="37" value="NSG" style="text;html=1;strokeColor=none;fillColor=none;align=center;verticalAlign=middle;whiteSpace=wrap;rounded=0;dashed=1;fontSize=17;" vertex="1" parent="10">
                    <mxGeometry x="45" y="560" width="120" height="20" as="geometry"/>
                </mxCell>
                <mxCell id="38" value="Backend auto scale&lt;br&gt;" style="text;html=1;strokeColor=none;fillColor=none;align=center;verticalAlign=middle;whiteSpace=wrap;rounded=0;dashed=1;fontSize=17;" vertex="1" parent="10">
                    <mxGeometry x="504" y="270" width="164.75" height="20" as="geometry"/>
                </mxCell>
                <mxCell id="39" value="Front" style="text;html=1;strokeColor=none;fillColor=none;align=center;verticalAlign=middle;whiteSpace=wrap;rounded=0;dashed=1;fontSize=17;" vertex="1" parent="10">
                    <mxGeometry x="294" y="270" width="120" height="20" as="geometry"/>
                </mxCell>
                <mxCell id="40" value="" style="verticalLabelPosition=bottom;html=1;verticalAlign=top;align=center;strokeColor=none;fillColor=#00BEF2;shape=mxgraph.azure.azure_load_balancer;dashed=1;dashPattern=1 1;fontSize=17;" vertex="1" parent="10">
                    <mxGeometry x="350" y="163" width="50" height="35" as="geometry"/>
                </mxCell>
                <mxCell id="41" value="" style="verticalLabelPosition=bottom;html=1;verticalAlign=top;align=center;strokeColor=none;fillColor=#00BEF2;shape=mxgraph.azure.autoscale;dashed=1;dashPattern=1 1;fontSize=17;" vertex="1" parent="10">
                    <mxGeometry x="500" y="360" width="50" height="30" as="geometry"/>
                </mxCell>
                <mxCell id="44" style="edgeStyle=none;rounded=0;orthogonalLoop=1;jettySize=auto;html=1;exitX=0.5;exitY=1;exitDx=0;exitDy=0;exitPerimeter=0;entryX=0.5;entryY=0;entryDx=0;entryDy=0;entryPerimeter=0;fontSize=17;" edge="1" parent="10" source="43" target="40">
                    <mxGeometry relative="1" as="geometry"/>
                </mxCell>
                <mxCell id="43" value="" style="verticalLabelPosition=bottom;html=1;verticalAlign=top;align=center;strokeColor=none;fillColor=#00BEF2;shape=mxgraph.azure.user;dashed=1;dashPattern=1 1;fontSize=17;" vertex="1" parent="10">
                    <mxGeometry x="351.25" y="10" width="47.5" height="50" as="geometry"/>
                </mxCell>
            </root>
        </mxGraphModel>
    </diagram>
</mxfile>